<?xml version="1.0" encoding="UTF-8"?>
<svg version="1.1" xmlns="http://www.w3.org/2000/svg" width="2426" height="249">
<path d="M0 0 C3.05179831 0.01069612 6.10300495 0.00006748 9.15478516 -0.01269531 C22.00626022 -0.02242346 34.73549213 0.02913828 47.06494141 4.07324219 C51.70813886 5.43488367 54.15548035 5.03400673 58.54833984 3.18652344 C70.24103157 -0.91132194 83.83677675 -0.08164758 96.04101562 -0.05493164 C99.0532653 -0.05177007 102.06453086 -0.07532545 105.07666016 -0.10058594 C140.14377903 -0.21602703 140.14377903 -0.21602703 153.06494141 11.51074219 C162.79769233 22.11576795 161.33461654 36.22019748 161.28759766 49.67089844 C161.28572937 51.24987238 161.28430741 52.82884692 161.28330994 54.40782166 C161.2795171 58.53577311 161.26971494 62.6636886 161.25860596 66.79162598 C161.24650925 71.75941983 161.24197418 76.7272258 161.23615265 81.69503021 C161.22650104 89.21695911 161.207322 96.73880932 161.18994141 104.26074219 C150.62994141 104.26074219 140.06994141 104.26074219 129.18994141 104.26074219 C129.15255859 99.88953125 129.11517578 95.51832031 129.07666016 91.01464844 C129.03850024 87.50883859 128.9974279 84.00308951 128.95439911 80.49733734 C128.90990882 76.80789805 128.87043959 73.11856785 128.84350586 69.42895508 C128.817319 65.86905308 128.77681112 62.30956532 128.72675514 58.7499218 C128.70217885 56.74447424 128.69208162 54.7388659 128.68229675 52.73329163 C128.55009191 40.86567018 128.55009191 40.86567018 122.93994141 30.82324219 C115.75705571 26.74205713 108.37058111 26.91874446 100.33886719 26.94506836 C98.32643194 26.94822417 96.31547647 26.92473316 94.30322266 26.89941406 C86.11153935 26.89533047 78.52471505 27.03744897 71.75244141 32.07324219 C68.49748416 36.63018233 67.93614139 41.3312102 67.87109375 46.81689453 C67.85122406 48.09776947 67.83135437 49.37864441 67.81088257 50.69833374 C67.79900889 52.08111397 67.78734587 53.46389602 67.77587891 54.84667969 C67.75715162 56.27301128 67.73757705 57.69933198 67.7171936 59.12564087 C67.666031 62.86392775 67.62632086 66.60225049 67.58905029 70.34069824 C67.54184256 74.83463511 67.48031325 79.32839628 67.42120361 83.82218933 C67.33318493 90.63496874 67.26328275 97.44771778 67.18994141 104.26074219 C56.62994141 104.26074219 46.06994141 104.26074219 35.18994141 104.26074219 C35.15255859 99.72195312 35.11517578 95.18316406 35.07666016 90.50683594 C35.0463645 87.6220332 35.01520638 84.73729097 34.98095703 81.85253906 C34.92674207 77.27924743 34.87562818 72.70607549 34.84350586 68.13256836 C34.8173914 64.44300396 34.7769327 60.75384415 34.72675514 57.06453133 C34.71014117 55.66086951 34.69859294 54.2571378 34.6923275 52.85339165 C34.86295383 40.87215678 34.86295383 40.87215678 28.93994141 30.94824219 C21.87428866 26.61250073 14.30706653 26.91885215 6.28393555 26.94506836 C4.26051976 26.94822957 2.23856793 26.92471372 0.21533203 26.89941406 C-8.27978213 26.89518974 -14.79897148 27.12163053 -21.68505859 32.51074219 C-27.07527896 39.48632149 -26.15169919 48.08639666 -26.22412109 56.50683594 C-26.24285545 57.88689808 -26.26243052 59.26694904 -26.2828064 60.64698792 C-26.33389449 64.2586708 -26.37364405 67.87039074 -26.41094971 71.48223877 C-26.4511366 75.17607576 -26.50205777 78.86976415 -26.55224609 82.56347656 C-26.64973373 89.79584045 -26.7294365 97.02809203 -26.81005859 104.26074219 C-37.37005859 104.26074219 -47.93005859 104.26074219 -58.81005859 104.26074219 C-58.89027621 87.02286724 -58.89027621 87.02286724 -58.90771484 79.60839844 C-58.91961605 74.57238488 -58.93361165 69.53644485 -58.9609375 64.50048828 C-58.98285617 60.43504791 -58.99466682 56.36968654 -58.99981308 52.30419159 C-59.00347502 50.7622529 -59.01062456 49.22031795 -59.02151871 47.67841339 C-59.1993362 21.43932899 -59.1993362 21.43932899 -50.09130859 11.35839844 C-37.04284119 -1.28898903 -16.89483713 -0.07036133 0 0 Z " fill="#FEFEFE" transform="translate(2048.81005859375,65.7392578125)"/>
<path d="M0 0 C1.50845993 -0.00065712 1.50845993 -0.00065712 3.0473938 -0.00132751 C6.35349304 0.00075349 9.65907782 0.02405249 12.96508789 0.04760742 C15.26436588 0.05320581 17.56364745 0.05747476 19.8629303 0.06047058 C25.9013159 0.07190015 31.93948347 0.10135131 37.9777832 0.13458252 C44.14474539 0.16532399 50.31174296 0.17898464 56.47875977 0.1940918 C68.56936554 0.22622267 80.65975256 0.27897541 92.75024414 0.34057617 C92.75024414 8.59057617 92.75024414 16.84057617 92.75024414 25.34057617 C51.17024414 25.83557617 51.17024414 25.83557617 8.75024414 26.34057617 C8.00488815 35.22254218 8.00488815 35.22254218 9.75024414 38.34057617 C10.61975204 38.34644241 11.48925995 38.35230865 12.38511658 38.35835266 C20.60881558 38.41643262 28.8322474 38.48859631 37.055686 38.57629108 C41.2827098 38.62087909 45.50963978 38.66016014 49.73681641 38.68701172 C53.82188294 38.71316089 57.9065862 38.7536438 61.99142647 38.80376244 C63.54415912 38.82035308 65.0969545 38.83191568 66.64976311 38.83819008 C86.08994758 38.92463605 86.08994758 38.92463605 91.3760376 43.85783386 C97.86730248 51.50480123 97.06547049 62.99417545 97.00024414 72.40307617 C97.0118457 74.08240234 97.0118457 74.08240234 97.02368164 75.7956543 C97.00229487 84.91176652 96.67924863 93.0165118 90.75024414 100.34057617 C87.17543189 103.48207785 84.1564202 104.46651848 79.4412384 104.46083069 C78.56204239 104.46220535 77.68284637 104.46358002 76.77700806 104.46499634 C75.33447159 104.45960342 75.33447159 104.45960342 73.86279297 104.45410156 C72.84798355 104.45424759 71.83317413 104.45439362 70.78761292 104.45454407 C67.42747879 104.45384643 64.06739985 104.44606095 60.70727539 104.43823242 C58.37985769 104.43636771 56.0524396 104.43494406 53.72502136 104.4339447 C47.59460367 104.43012368 41.46420961 104.42029691 35.33380127 104.40924072 C29.08004069 104.39901769 22.82627629 104.39444517 16.57250977 104.3894043 C4.29841083 104.3786743 -7.97567055 104.36160283 -20.24975586 104.34057617 C-20.27862337 100.19475731 -20.29650913 96.04896401 -20.31225586 91.90307617 C-20.32063477 90.71907227 -20.32901367 89.53506836 -20.33764648 88.31518555 C-20.34086914 87.19047852 -20.3440918 86.06577148 -20.34741211 84.90698242 C-20.35264893 83.86485596 -20.35788574 82.82272949 -20.36328125 81.74902344 C-20.24975586 79.34057617 -20.24975586 79.34057617 -19.24975586 78.34057617 C-16.66336548 78.24549796 -14.10377026 78.21501242 -11.51708984 78.22705078 C-10.30255127 78.22683174 -10.30255127 78.22683174 -9.06347656 78.22660828 C-6.37424078 78.22730763 -3.68507337 78.23510107 -0.99584961 78.24291992 C0.8636013 78.24478402 2.7230527 78.24620796 4.58250427 78.24720764 C9.4865351 78.25103346 14.3905365 78.26086429 19.29455566 78.27191162 C24.29475507 78.28212436 29.2949592 78.28670497 34.29516602 78.29174805 C44.11353835 78.3024865 53.9318888 78.31956369 63.75024414 78.34057617 C63.75024414 74.05057617 63.75024414 69.76057617 63.75024414 65.34057617 C61.61628174 65.35628662 59.48231934 65.37199707 57.28369141 65.38818359 C50.20705711 65.43805103 43.13041474 65.47109341 36.05365086 65.49601269 C31.76597812 65.51162133 27.4784865 65.53277106 23.19091797 65.56689453 C19.04767532 65.59966034 14.90460611 65.61746524 10.76124382 65.6252079 C9.1861085 65.63072067 7.61098192 65.6414853 6.0359211 65.65776634 C-13.54849956 65.85202446 -13.54849956 65.85202446 -19.68725586 60.02807617 C-26.99141163 47.46492824 -26.16701043 26.92374823 -22.99975586 13.15307617 C-21.27362816 7.70298779 -19.40153043 4.48804554 -14.2497406 1.74076843 C-9.558799 -0.18856133 -5.00774925 -0.05758537 0 0 Z " fill="#FEFEFE" transform="translate(2281.249755859375,65.659423828125)"/>
<path d="M0 0 C1.00549393 -0.00029205 2.01098785 -0.00058411 3.04695129 -0.00088501 C6.35837543 0.00050427 9.66957237 0.01604673 12.98095703 0.03173828 C15.28166582 0.03546983 17.58237621 0.03831614 19.88308716 0.04031372 C25.92965099 0.04793894 31.97611828 0.06757798 38.02264404 0.08972168 C44.19623509 0.11020399 50.36984178 0.11932054 56.54345703 0.12939453 C68.65027704 0.15082486 80.75700014 0.18599804 92.86376953 0.22705078 C92.86376953 8.47705078 92.86376953 16.72705078 92.86376953 25.22705078 C51.28376953 25.72205078 51.28376953 25.72205078 8.86376953 26.22705078 C8.86376953 29.85705078 8.86376953 33.48705078 8.86376953 37.22705078 C10.73262044 39.09590169 13.89037787 38.38147684 16.38378906 38.40063477 C17.40589729 38.41066528 17.40589729 38.41066528 18.44865417 38.42089844 C19.9339021 38.4349825 21.41917211 38.44686577 22.90445328 38.45684624 C25.25888213 38.47323012 27.6131496 38.49647076 29.96749878 38.52174377 C36.66363484 38.59256295 43.35983992 38.65243812 50.05615234 38.70385742 C54.1487587 38.73576642 58.24118504 38.77708184 62.33364487 38.82405281 C63.89083467 38.84001383 65.44806601 38.85236247 67.00531387 38.86096001 C69.19285426 38.87320309 71.37997734 38.89739251 73.56738281 38.92407227 C75.43150314 38.93953346 75.43150314 38.93953346 77.33328247 38.95530701 C82.44645906 39.34887137 86.52543213 40.19288097 90.61376953 43.35205078 C99.38500453 54.55973994 97.73977274 72.29162193 96.55517578 85.72705078 C95.67614889 91.32793012 94.29574547 95.68200156 90.86376953 100.22705078 C85.05802423 104.4155765 80.56128077 104.78801232 73.5222168 104.68115234 C72.50682327 104.68173645 71.49142975 104.68232056 70.44526672 104.68292236 C67.10654899 104.6801473 63.76873655 104.64908161 60.43017578 104.61767578 C58.10847969 104.61021136 55.78677728 104.60451938 53.46507263 104.6005249 C47.36742627 104.58528454 41.27016366 104.54601594 35.17266846 104.50170898 C28.94540599 104.46072213 22.71808126 104.44250656 16.49072266 104.42236328 C4.28154292 104.3795205 -7.92725175 104.30918316 -20.13623047 104.22705078 C-20.13623047 95.64705078 -20.13623047 87.06705078 -20.13623047 78.22705078 C7.58376953 78.22705078 35.30376953 78.22705078 63.86376953 78.22705078 C64.60912552 69.34508477 64.60912552 69.34508477 62.86376953 66.22705078 C61.55950768 66.21825142 61.55950768 66.21825142 60.22889709 66.20927429 C52.00519809 66.15119434 43.78176628 66.07903065 35.55832767 65.99133587 C31.33130388 65.94674787 27.10437389 65.90746681 22.87719727 65.88061523 C18.79213073 65.85446606 14.70742748 65.81398316 10.6225872 65.76386452 C9.06985455 65.74727387 7.51705917 65.73571128 5.96425056 65.72943687 C-13.63110535 65.64230089 -13.63110535 65.64230089 -19.57373047 59.85205078 C-24.70895177 51.22487899 -24.34559574 42.24970298 -24.38623047 32.47705078 C-24.40685547 31.25244141 -24.42748047 30.02783203 -24.44873047 28.76611328 C-24.48519763 20.25103013 -24.10082893 11.78847672 -18.82373047 4.72705078 C-13.29793104 -0.41322776 -7.13490029 -0.05448848 0 0 Z " fill="#FEFEFE" transform="translate(1184.13623046875,65.77294921875)"/>
<path d="M0 0 C0.86374237 -0.00137466 1.72748474 -0.00274933 2.61740112 -0.00416565 C3.55679535 -0.00057037 4.49618958 0.0030249 5.46405029 0.00672913 C6.95722275 0.00651009 6.95722275 0.00651009 8.4805603 0.00628662 C11.77032654 0.0069832 15.06003613 0.01476372 18.34979248 0.02259827 C20.63094044 0.02446335 22.9120888 0.02588683 25.1932373 0.02688599 C31.19705308 0.03070404 37.20084466 0.04052828 43.20465088 0.05158997 C49.33115308 0.06181937 55.4576592 0.06638689 61.58416748 0.07142639 C73.60501315 0.08215115 85.62583452 0.09974223 97.64666748 0.12025452 C97.64666748 8.37025452 97.64666748 16.62025452 97.64666748 25.12025452 C95.23894043 25.14531067 92.83121338 25.17036682 90.3505249 25.19618225 C82.40362897 25.27958426 74.4567985 25.36827943 66.50998974 25.45959377 C61.6909076 25.51480514 56.87181938 25.56822235 52.05267334 25.61756897 C47.40368127 25.66523878 42.75476336 25.71758264 38.10585976 25.77319527 C36.33043573 25.79360694 34.55499138 25.81232199 32.77953148 25.82932854 C30.29661066 25.85339878 27.81382999 25.88344982 25.33099365 25.91493225 C24.5937204 25.92068771 23.85644714 25.92644318 23.09683228 25.93237305 C20.01555914 25.97690866 17.59277837 26.13821755 14.64666748 27.12025452 C14.64666748 30.75025452 14.64666748 34.38025452 14.64666748 38.12025452 C15.53092407 38.12612076 16.41518066 38.131987 17.32623291 38.13803101 C25.68268666 38.19607125 34.03887635 38.26821265 42.39507294 38.35596943 C46.69050703 38.40058873 50.98584812 38.43986314 55.28143311 38.46669006 C59.43133145 38.49280768 63.58087028 38.53326902 67.73054504 38.58344078 C69.30922454 38.60005255 70.88796613 38.61160212 72.46672058 38.61786842 C91.07004904 38.69914123 91.07004904 38.69914123 97.52166748 44.87025452 C102.44993146 52.40759943 101.98800539 60.58431027 101.96234131 69.25306702 C101.9591852 71.48273317 101.98267153 73.71106467 102.00799561 75.94056702 C102.08418983 92.86858213 102.08418983 92.86858213 96.27166748 100.05775452 C90.61428302 104.50284231 85.55202576 104.40001293 78.6239624 104.3473053 C77.11594055 104.34774338 77.11594055 104.34774338 75.57745361 104.34819031 C72.26059279 104.34679904 68.94395772 104.33124718 65.62713623 104.31556702 C63.3249982 104.31183617 61.02285857 104.30898954 58.72071838 104.30699158 C52.66592005 104.29936079 46.61121789 104.27971694 40.55645752 104.25758362 C34.37625428 104.23711333 28.19603548 104.22798732 22.01580811 104.21791077 C9.89271221 104.19647061 -2.23028711 104.16129287 -14.35333252 104.12025452 C-14.35333252 95.54025452 -14.35333252 86.96025452 -14.35333252 78.12025452 C13.03666748 77.79025452 40.42666748 77.46025452 68.64666748 77.12025452 C68.64666748 73.49025452 68.64666748 69.86025452 68.64666748 66.12025452 C67.76241089 66.11438828 66.8781543 66.10852203 65.96710205 66.10247803 C57.6106483 66.04443778 49.25445861 65.97229639 40.89826202 65.8845396 C36.60282793 65.8399203 32.30748684 65.8006459 28.01190186 65.77381897 C23.86200352 65.74770135 19.71246468 65.70724002 15.56278992 65.65706825 C13.98411043 65.64045649 12.40536883 65.62890691 10.82661438 65.62264061 C-7.69314636 65.54173289 -7.69314636 65.54173289 -14.22833252 59.43275452 C-19.17569211 51.72069397 -18.69630854 43.2124624 -18.66900635 34.33924866 C-18.66584446 32.19086503 -18.6893702 30.04385953 -18.71466064 27.89564514 C-18.79302416 11.52561365 -18.79302416 11.52561365 -13.66973877 4.96400452 C-13.09094971 4.52056702 -12.51216064 4.07712952 -11.91583252 3.62025452 C-11.33962158 3.15619202 -10.76341064 2.69212952 -10.16973877 2.21400452 C-6.91731449 0.25555549 -3.73986886 -0.00460575 0 0 Z " fill="#FEFEFE" transform="translate(1526.3533325195313,65.87974548339844)"/>
<path d="M0 0 C1.09876968 -0.0033284 2.19753937 -0.0066568 3.3296051 -0.01008606 C5.64836207 -0.01512766 7.96712623 -0.01749524 10.28588867 -0.01733398 C13.77470381 -0.0195053 17.26319441 -0.03764915 20.75195312 -0.05664062 C64.82892755 -0.16936594 64.82892755 -0.16936594 78.37890625 12.16796875 C84.48791929 19.9812129 86.63955626 28.05816632 86.60595703 37.86914062 C86.60624908 38.59207306 86.60654114 39.31500549 86.60684204 40.05984497 C86.60546295 42.41893054 86.58996987 44.77768924 86.57421875 47.13671875 C86.57048355 48.78438138 86.56763897 50.43204626 86.56564331 52.07971191 C86.55804677 56.39349619 86.53843294 60.70714347 86.51623535 65.02087402 C86.49207169 70.20888437 86.48297697 75.39694081 86.47132874 80.58499146 C86.45200584 88.44607885 86.41365572 96.30686629 86.37890625 104.16796875 C75.81890625 104.16796875 65.25890625 104.16796875 54.37890625 104.16796875 C54.40210938 99.94113281 54.4253125 95.71429688 54.44921875 91.359375 C54.46209977 87.96830106 54.47293863 84.57723413 54.48240662 81.1861496 C54.49292481 77.61794546 54.50695789 74.04983788 54.52978516 70.48168945 C54.55586874 66.37840898 54.56541525 62.27522921 54.57421875 58.171875 C54.58454132 56.90589981 54.59486389 55.63992462 54.60549927 54.33558655 C54.77796234 42.71467732 54.77796234 42.71467732 50.31640625 32.29296875 C43.50015224 27.36206159 36.17565829 26.71476828 27.97265625 26.76953125 C27.00791382 26.76666107 26.04317139 26.76379089 25.04919434 26.76083374 C23.02221078 26.75880454 20.99520712 26.7642537 18.96826172 26.77685547 C15.88724471 26.79292526 12.80753931 26.77696731 9.7265625 26.7578125 C7.74609089 26.75979513 5.76562009 26.76363923 3.78515625 26.76953125 C2.87552124 26.76345856 1.96588623 26.75738586 1.02868652 26.75112915 C-5.25155701 26.81929797 -12.3041131 27.28088183 -17.24841309 31.5843811 C-21.16743422 36.10554442 -21.74785555 39.67309032 -21.82641602 45.4753418 C-21.84636124 46.77646408 -21.86630646 48.07758636 -21.88685608 49.4181366 C-21.90383921 50.83865235 -21.92071806 52.25916935 -21.9375 53.6796875 C-21.95807512 55.13272181 -21.97907174 56.58575021 -22.00047302 58.03877258 C-22.05563609 61.86096405 -22.10507073 65.68320901 -22.15332031 69.50549316 C-22.21241546 74.09275406 -22.27861168 78.6799173 -22.3436203 83.26709747 C-22.4415573 90.23399486 -22.5304628 97.20095523 -22.62109375 104.16796875 C-33.18109375 104.16796875 -43.74109375 104.16796875 -54.62109375 104.16796875 C-54.6890859 94.56189863 -54.7440341 84.95599043 -54.77653027 75.34973335 C-54.79213304 70.88833747 -54.81327189 66.4271159 -54.84741211 61.96582031 C-54.88019902 57.65399353 -54.89798721 53.34233359 -54.90572548 49.03039169 C-54.9112345 47.39188896 -54.9219916 45.75339453 -54.93828392 44.11496353 C-55.04607084 32.8179412 -55.0074966 22.11469025 -47.45703125 12.98046875 C-35.21964085 0.89930036 -16.21545819 0.01744285 0 0 Z " fill="#FEFEFE" transform="translate(797.62109375,65.83203125)"/>
<path d="M0 0 C1.75404701 0.00373843 3.50809613 0.00658147 5.262146 0.00857544 C9.83890734 0.01614658 14.41553814 0.03573766 18.99224854 0.0579834 C23.67840815 0.0785837 28.36458923 0.08760724 33.05078125 0.09765625 C42.2162119 0.11899088 51.38151208 0.15411843 60.546875 0.1953125 C60.546875 8.7753125 60.546875 17.3553125 60.546875 26.1953125 C58.44731445 26.21513184 56.34775391 26.23495117 54.18457031 26.25537109 C47.24744683 26.32227936 40.31047335 26.39991887 33.37352371 26.48283958 C29.16766915 26.53278446 24.96183949 26.57911463 20.75585938 26.6171875 C16.69681836 26.65406321 12.63798654 26.70042931 8.57912445 26.75337601 C7.03062357 26.77190782 5.48207787 26.78702029 3.93350983 26.79865646 C1.7643746 26.81553987 -0.4042828 26.84457919 -2.57324219 26.87646484 C-3.80790222 26.88978851 -5.04256226 26.90311218 -6.31463623 26.9168396 C-9.30196799 27.18190059 -11.02868219 27.46134687 -13.453125 29.1953125 C-14.77445594 33.15930531 -14.61566303 36.96458569 -14.62109375 41.09765625 C-14.62442215 41.97176651 -14.62775055 42.84587677 -14.63117981 43.74647522 C-14.63624149 45.59489414 -14.63858837 47.4433222 -14.63842773 49.29174805 C-14.64061392 52.11848 -14.6587767 54.94482148 -14.67773438 57.77148438 C-14.68066851 59.567707 -14.68265317 61.36393148 -14.68359375 63.16015625 C-14.69077927 64.00505112 -14.69796478 64.84994598 -14.70536804 65.72044373 C-14.7007531 66.90671104 -14.7007531 66.90671104 -14.69604492 68.11694336 C-14.69746994 68.809608 -14.69889496 69.50227264 -14.70036316 70.21592712 C-14.40142665 72.60920876 -13.76467673 74.17302466 -12.453125 76.1953125 C-3.04701631 79.33068206 8.31701431 78.36894743 18.1640625 78.51171875 C19.38723175 78.53249985 20.610401 78.55328094 21.87063599 78.57469177 C25.72100016 78.63929954 29.57142367 78.6986528 33.421875 78.7578125 C36.05599535 78.80108247 38.69011003 78.84469923 41.32421875 78.88867188 C47.7317114 78.99553063 54.13925813 79.09526001 60.546875 79.1953125 C60.546875 87.4453125 60.546875 95.6953125 60.546875 104.1953125 C50.47107694 104.24070055 40.39534804 104.27730707 30.31947041 104.29893684 C25.63961771 104.30932392 20.95983927 104.32338912 16.2800293 104.34619141 C11.75423146 104.36810243 7.22850454 104.37991917 2.7026577 104.38506699 C0.98570834 104.38873026 -0.73123763 104.39588252 -2.44815636 104.40677261 C-31.1184499 104.58120365 -31.1184499 104.58120365 -40.453125 97.1953125 C-48.16232969 89.2588094 -47.76128233 79.72033856 -47.75390625 69.265625 C-47.75780071 67.9071337 -47.7621369 66.54864359 -47.76689148 65.19015503 C-47.77432576 62.35085086 -47.77408305 59.5116711 -47.76879883 56.67236328 C-47.76301115 53.05577561 -47.77993128 49.43970124 -47.8031435 45.82319832 C-47.8179639 43.01941003 -47.81874129 40.21574298 -47.81563377 37.41192245 C-47.81638839 35.43736256 -47.8301934 33.46282131 -47.84431458 31.48831177 C-47.80235685 23.28366021 -46.97050028 16.625893 -42.890625 9.4453125 C-31.25756841 -1.29289359 -14.75757818 -0.09330864 0 0 Z " fill="#FEFEFE" transform="translate(980.453125,65.8046875)"/>
<path d="M0 0 C13.53 0 27.06 0 41 0 C47.08816015 10.90416744 53.10156147 21.84360602 59.03979492 32.83007812 C63.16455046 40.46132782 67.31161404 48.08006632 71.47119141 55.69238281 C74.11195942 60.52842518 76.74256754 65.36969462 79.359375 70.21875 C80.4895646 72.31251011 81.61977278 74.4062602 82.75 76.5 C83.29358154 77.50756348 83.83716309 78.51512695 84.3972168 79.55322266 C88.04963032 86.30257499 91.80734637 92.97657468 95.70703125 99.5859375 C97 102 97 102 97 104 C92.12570232 104.24810442 87.25510516 104.42902231 82.37597656 104.54931641 C80.71874984 104.59946677 79.0619627 104.6676137 77.40625 104.75439453 C63.75190687 105.45188201 63.75190687 105.45188201 59.7746582 102.15576172 C58.16461497 99.50763987 57.09267915 96.89832905 56 94 C54.96100839 92.04649661 53.89609738 90.106606 52.80859375 88.1796875 C51.68262454 86.07934103 50.55901799 83.97772665 49.4375 81.875 C48.20465318 79.5753996 46.97157479 77.27592334 45.73828125 74.9765625 C45.11775879 73.81801758 44.49723633 72.65947266 43.85791016 71.46582031 C32.67429149 50.59667354 32.67429149 50.59667354 21 30 C17.01690053 36.2016273 13.47023362 42.56236932 10 49.0625 C5.53623208 57.37101051 0.98387937 65.61897711 -3.6875 73.8125 C-9.35531165 83.76260122 -14.72185325 93.83759806 -20 104 C-31.88 104 -43.76 104 -56 104 C-46.690625 85.38125 -46.690625 85.38125 -41.8125 76.4375 C-41.25916992 75.41849609 -40.70583984 74.39949219 -40.13574219 73.34960938 C-36.41498963 66.52296546 -32.6031811 59.75253309 -28.75 53 C-22.54339869 42.12137018 -16.66598306 31.07673856 -10.82324219 20 C-10.29932892 19.0073262 -10.29932892 19.0073262 -9.76483154 17.99459839 C-8.81585164 16.19517794 -7.86879152 14.39474541 -6.921875 12.59423828 C-4.66306579 8.36987482 -2.32640025 4.18752046 0 0 Z " fill="#FEFEFE" transform="translate(605,66)"/>
<path d="M0 0 C1.6874269 0.00015917 3.37485866 0.00585622 5.06225586 0.01586914 C6.39189613 0.01799156 6.39189613 0.01799156 7.74839783 0.02015686 C10.59133215 0.02577324 13.43418892 0.03832848 16.27709961 0.05102539 C18.19962452 0.05603828 20.12215065 0.06060155 22.04467773 0.06469727 C26.7680151 0.07574798 31.49129419 0.09302356 36.21459961 0.11352539 C41.3838434 9.25639085 46.50016028 18.41985251 51.46459961 27.67602539 C55.70283202 35.54525081 60.03012749 43.35337189 64.46459961 51.11352539 C70.70528891 62.04804991 76.60887558 73.15318438 82.47924805 84.28930664 C82.83033127 84.95470459 83.18141449 85.62010254 83.5431366 86.30566406 C84.49895114 88.11846169 85.45267499 89.93236122 86.40625 91.74633789 C87.70979462 94.17356719 89.04809135 96.54525355 90.44287109 98.91821289 C92.21459961 102.11352539 92.21459961 102.11352539 92.21459961 104.11352539 C80.66459961 104.11352539 69.11459961 104.11352539 57.21459961 104.11352539 C52.03126532 94.97680054 46.94654657 85.79904494 41.96459961 76.55102539 C36.98701032 67.31690634 31.8959645 58.15425608 26.70385742 49.0390625 C23.13432132 42.76938955 19.64958926 36.45791999 16.21459961 30.11352539 C12.03140355 36.60684465 8.3458124 43.29870694 4.71459961 50.11352539 C3.47135249 52.43396781 2.22785715 54.75427726 0.98413086 57.07446289 C0.35080416 58.25771725 -0.28249668 59.44098545 -0.91577148 60.62426758 C-8.72757263 75.20330414 -16.62389354 89.72714043 -24.78540039 104.11352539 C-36.66540039 104.11352539 -48.54540039 104.11352539 -60.78540039 104.11352539 C-56.99810742 96.53893944 -53.19453087 89.17310042 -48.97290039 81.86352539 C-43.54934334 72.37866624 -38.3800712 62.77709162 -33.28540039 53.11352539 C-27.22455073 41.62096298 -20.98962696 30.25125517 -14.54321289 18.96899414 C-11.58070486 13.78004894 -8.74452059 8.53106517 -5.95727539 3.24633789 C-4.24349847 0.1272639 -4.24349847 0.1272639 0 0 Z " fill="#FEFEFE" transform="translate(277.785400390625,65.886474609375)"/>
<path d="M0 0 C0.79550735 0.00092179 1.59101469 0.00184359 2.41062832 0.00279331 C3.32073162 0.00141865 4.23083492 0.00004398 5.16851711 -0.00137234 C6.1748016 0.00222294 7.18108608 0.00581821 8.21786404 0.00952244 C9.27139568 0.00937641 10.32492733 0.00923038 11.41038418 0.00907993 C14.91125415 0.00977957 18.41207166 0.01757435 21.9129324 0.02539158 C24.33288958 0.02725558 26.75284714 0.02867957 29.17280483 0.0296793 C35.55642639 0.03350591 41.94002536 0.04333742 48.32363796 0.05438328 C54.83191529 0.06459432 61.34019625 0.06917626 67.84847927 0.0742197 C80.62908977 0.08495956 93.40967755 0.10255751 106.19027615 0.12304783 C106.19027615 8.70304783 106.19027615 17.28304783 106.19027615 26.12304783 C80.78027615 26.12304783 55.37027615 26.12304783 29.19027615 26.12304783 C30.18027615 29.42304783 31.17027615 32.72304783 32.19027615 36.12304783 C36.42328295 38.23955123 38.4263221 38.39178214 43.07015896 38.44189548 C44.09516003 38.45696392 44.09516003 38.45696392 45.14086819 38.47233677 C47.39170422 38.50314181 49.64242146 38.52019612 51.89340115 38.53711033 C53.45711188 38.55582417 55.02081255 38.57539775 56.58450222 38.59579563 C60.69436609 38.64710016 64.80426269 38.68673478 68.91427517 38.72393894 C73.11052442 38.76398916 77.3066377 38.81507685 81.50277615 38.86523533 C89.73185675 38.9619748 97.96099356 39.04536542 106.19027615 39.12304783 C106.19027615 47.70304783 106.19027615 56.28304783 106.19027615 65.12304783 C96.11447808 65.16843588 86.03874918 65.2050424 75.96287155 65.22667217 C71.28301886 65.23705925 66.60324042 65.25112445 61.92343044 65.27392673 C57.3976326 65.29583776 52.87190568 65.3076545 48.34605885 65.31280231 C46.62910949 65.31646559 44.91216352 65.32361785 43.19524479 65.33450794 C12.45492716 65.52153308 12.45492716 65.52153308 2.87777615 56.24804783 C-4.25808109 46.76649358 -3.23356865 32.608789 -3.09097385 21.31372166 C-3.05920389 18.76889815 -3.04992878 16.22469262 -3.04409885 13.67968845 C-3.03495016 12.06054017 -3.02458132 10.4413982 -3.01284885 8.82226658 C-3.00859898 8.06201679 -3.0043491 7.30176701 -2.99997044 6.51847935 C-2.9126613 0.19803941 -2.9126613 0.19803941 0 0 Z " fill="#FEFEFE" transform="translate(1835.809723854065,104.87695217132568)"/>
<path d="M0 0 C5.29727456 -0.32544692 10.58855406 -0.5590083 15.89355469 -0.71411133 C17.69048513 -0.77883809 19.48674886 -0.86707215 21.28125 -0.98071289 C30.51909759 -1.55034579 37.94234103 -1.83665478 45.1914978 4.52546692 C47.45945909 6.76174298 49.59971959 9.07301804 51.67221069 11.49101257 C53.38038338 13.43229278 55.26659415 15.09543016 57.25 16.75 C60.26098534 19.34099811 63.19495772 22.00525061 66.125 24.6875 C69.5956973 27.82612441 72.99996863 30.57892838 77 33 C77.4125 32.57589844 77.825 32.15179688 78.25 31.71484375 C81.9763594 27.93025999 85.81116875 24.35148692 89.83203125 20.8828125 C92.24842951 18.7842468 94.62529024 16.645603 97 14.5 C106.25491766 6.15633577 106.25491766 6.15633577 110 3 C110.51288574 2.47994385 111.02577148 1.9598877 111.55419922 1.42407227 C115.25655423 -0.73163115 118.71483911 -0.37122273 122.921875 -0.29296875 C123.78186096 -0.28872391 124.64184692 -0.28447906 125.52789307 -0.28010559 C128.2689167 -0.26334116 131.00919939 -0.22569345 133.75 -0.1875 C135.61066645 -0.17245025 137.47134445 -0.15876235 139.33203125 -0.14648438 C143.8883054 -0.11344499 148.44402716 -0.06167833 153 0 C150.35137698 2.66178353 147.70736076 5.31865098 144.94921875 7.8671875 C144.41981689 8.35662842 143.89041504 8.84606934 143.3449707 9.3503418 C142.79800537 9.853479 142.25104004 10.35661621 141.6875 10.875 C141.11281982 11.40456299 140.53813965 11.93412598 139.94604492 12.47973633 C136.32820695 15.80435991 132.67279512 19.07785517 128.95703125 22.29296875 C126.6144085 24.33633431 124.30726578 26.41680859 122 28.5 C118.38595942 31.76145125 114.74210646 34.98359155 111.0703125 38.1796875 C107.84610846 41.01455369 104.67029665 43.90271419 101.4921875 46.7890625 C99 49 99 49 95.89453125 50.92407227 C93.78273816 52.69495081 93.07838255 53.67016462 92.43460083 56.37921143 C92.20832374 59.40815039 92.16944697 62.38844387 92.1953125 65.42578125 C92.18160614 66.52850876 92.16789978 67.63123627 92.15377808 68.76737976 C92.11644472 72.28283358 92.12019559 75.79687589 92.125 79.3125 C92.10687575 81.69858982 92.08607393 84.08466092 92.0625 86.47070312 C92.00558525 92.31462874 92.0042433 98.15485009 92 104 C81.44 104 70.88 104 60 104 C60.020625 100.4834375 60.04125 96.966875 60.0625 93.34375 C60.05527398 89.92141507 60.03439276 86.49941526 60.01220703 83.07714844 C60.00411791 80.70671146 60.01012995 78.3361813 60.03076172 75.96582031 C60.05801671 72.54890553 60.03383085 69.13554079 60 65.71875 C60.0194165 64.66635132 60.03883301 63.61395264 60.05883789 62.52966309 C59.94736981 56.78628201 59.29149927 53.64088305 55.1796875 49.48242188 C53.80944751 48.29456522 52.41635607 47.13247365 51 46 C49.70498866 44.85794815 48.41282194 43.7126528 47.125 42.5625 C46.46757813 41.99660156 45.81015625 41.43070313 45.1328125 40.84765625 C42.72623179 38.7628345 40.36235055 36.63478467 38 34.5 C35.01937279 31.81016569 32.02754767 29.13689636 29 26.5 C25.97245233 23.86310364 22.98062721 21.18983431 20 18.5 C14.40607204 13.45432838 8.75780973 8.48279137 3 3.625 C2.01 2.75875 1.02 1.8925 0 1 C0 0.67 0 0.34 0 0 Z " fill="#FEFEFE" transform="translate(1319,66)"/>
<path d="M0 0 C10.56 0 21.12 0 32 0 C32.05607422 6.55681641 32.05607422 6.55681641 32.11328125 13.24609375 C32.15144116 16.7519036 32.19251351 20.25765267 32.2355423 23.76340485 C32.28003258 27.45284414 32.31950182 31.14217434 32.34643555 34.83178711 C32.3726224 38.3916891 32.41313029 41.95117687 32.46318626 45.51082039 C32.48776256 47.51626795 32.49785978 49.52187629 32.50764465 51.52745056 C32.62318681 63.42809232 32.62318681 63.42809232 38.3125 73.4375 C47.62657776 78.85266149 58.87843549 78.15520874 69.3515625 78.31640625 C71.06162979 78.3475779 71.06162979 78.3475779 72.8062439 78.37937927 C76.41244052 78.4442436 80.01870374 78.50346334 83.625 78.5625 C86.08464203 78.60574539 88.54427757 78.6493615 91.00390625 78.69335938 C97.00253724 78.80055002 103.00122572 78.90009129 109 79 C109 87.25 109 95.5 109 104 C100.41022996 104.04552634 91.8205567 104.08207242 83.23069763 104.10362434 C79.24034067 104.11397798 75.25007187 104.12797931 71.25976562 104.15087891 C67.39530597 104.17291271 63.53093007 104.18463155 59.66641235 104.18975449 C58.20592941 104.19339635 56.74545005 104.20050413 55.28500366 104.21146011 C39.6018309 104.32422918 21.77594159 104.31456987 8.5 94.8125 C0.97833041 86.35062172 -0.13227742 77.2500126 -0.11352539 66.29882812 C-0.11367142 65.57589569 -0.11381744 64.85296326 -0.1139679 64.10812378 C-0.11327838 61.74913394 -0.10553163 59.39022583 -0.09765625 57.03125 C-0.09578865 55.38358605 -0.09436636 53.73592154 -0.09336853 52.08825684 C-0.0895703 47.77452024 -0.07976332 43.46081789 -0.06866455 39.14709473 C-0.05658267 33.95906278 -0.05203535 28.77101931 -0.04621124 23.58297729 C-0.03654988 15.72196112 -0.01737455 7.86101994 0 0 Z " fill="#FEFEFE" transform="translate(406,66)"/>
<path d="M0 0 C1.29349365 0.00523682 2.5869873 0.01047363 3.91967773 0.01586914 C4.9496714 0.01799156 4.9496714 0.01799156 6.00047302 0.02015686 C8.20144949 0.0257706 10.40232557 0.03832532 12.60327148 0.05102539 C14.09220231 0.05603863 15.58113473 0.06060184 17.07006836 0.06469727 C20.72700223 0.07574446 24.38387707 0.09301826 28.04077148 0.11352539 C28.13374261 10.37144449 28.20467353 20.62926218 28.24802017 30.88751793 C28.2688319 35.65164524 28.29703137 40.41548278 28.3425293 45.17944336 C28.38621712 49.78305507 28.40995676 54.38638929 28.42028046 58.99019241 C28.42763088 60.74035633 28.44198394 62.49050627 28.46369171 64.24055099 C28.70889772 84.84122437 28.70889772 84.84122437 22.190979 92.20272827 C8.77808577 105.23674257 -11.31828275 104.2761345 -28.68969727 104.21118164 C-30.17613171 104.20931197 -31.66256679 104.20789067 -33.14900208 104.20689392 C-37.02375042 104.20311195 -40.89846009 104.19331962 -44.77319336 104.18218994 C-48.7421008 104.17188189 -52.71101461 104.16737636 -56.67993164 104.16235352 C-64.43971677 104.15169259 -72.19946225 104.13413187 -79.95922852 104.11352539 C-79.95922852 95.86352539 -79.95922852 87.61352539 -79.95922852 79.11352539 C-76.61926758 79.06454102 -73.27930664 79.01555664 -69.83813477 78.96508789 C-66.54471982 78.91082717 -63.25136803 78.85361915 -59.95800781 78.79614258 C-57.69764053 78.75824228 -55.43722087 78.72332756 -53.17675781 78.69165039 C-29.30862846 79.83588795 -29.30862846 79.83588795 -7.95922852 72.11352539 C-5.0573444 68.18499387 -4.5765234 65.34452422 -4.54272461 60.50317383 C-4.51787491 58.5265274 -4.51787491 58.5265274 -4.49252319 56.50994873 C-4.48907084 55.08093301 -4.48578912 53.65191687 -4.48266602 52.22290039 C-4.46835057 50.75269136 -4.45259257 49.28249574 -4.43545532 47.81231689 C-4.39368132 43.95270437 -4.3686281 40.09317498 -4.34796143 36.23339844 C-4.31207992 30.04136682 -4.25129116 23.84953974 -4.1894722 17.65772247 C-4.17033704 15.49225419 -4.1586422 13.32684088 -4.14804077 11.16131592 C-4.13777863 9.85616028 -4.12751648 8.55100464 -4.11694336 7.20629883 C-4.10719986 5.47352692 -4.10719986 5.47352692 -4.09725952 3.70574951 C-3.90024644 0.00584115 -3.7493936 0.14383863 0 0 Z " fill="#FEFEFE" transform="translate(152.959228515625,65.886474609375)"/>
<path d="M0 0 C41.25 0 82.5 0 125 0 C125 8.25 125 16.5 125 25 C83.75 25 42.5 25 0 25 C0 16.75 0 8.5 0 0 Z " fill="#FFFFFF" transform="translate(1669,66)"/>
<path d="M0 0 C1.73448648 0.00186834 3.46897349 0.00329028 5.20346069 0.00428772 C9.73746229 0.00808013 14.27143114 0.01788193 18.80541992 0.0289917 C23.44449419 0.03927677 28.08357383 0.04380045 32.72265625 0.04882812 C41.80209993 0.05950757 50.88151085 0.07707731 59.9609375 0.09765625 C59.9609375 8.34765625 59.9609375 16.59765625 59.9609375 25.09765625 C24.3209375 25.09765625 -11.3190625 25.09765625 -48.0390625 25.09765625 C-47.06172117 16.30158424 -46.35135025 12.48697395 -40.3515625 6.34765625 C-29.29352659 -2.07751397 -13.07342472 -0.0416137 0 0 Z " fill="#FEFEFE" transform="translate(1882.0390625,65.90234375)"/>
<path d="M0 0 C10.56 0 21.12 0 32 0 C32 21.45 32 42.9 32 65 C21.44 65 10.88 65 0 65 C0 43.55 0 22.1 0 0 Z " fill="#FFFFFF" transform="translate(1715,105)"/>
</svg>
